<svg width="40" height="40" viewBox="0 0 40 40" fill="none" xmlns="http://www.w3.org/2000/svg">
<path d="M31.9995 12.0001C33.5974 11.9944 34.0062 12.4581 33.9995 14.0001V18.0001C34.0008 19.4438 33.6794 19.9886 31.9995 20C32.0144 23.9964 31.3806 27.0645 29 34C28.5247 34.9979 28.1158 35.4555 27 36C21.6775 36.453 18.6351 36.5305 13 36C11.9141 35.5135 11.4688 35.0422 11 34C8.60295 27.0174 8.06506 24.0979 7.99951 20C6.47597 19.9951 6.00989 19.424 5.99951 18.0001L6.00024 14.0001C5.9966 12.2924 6.47442 12.0044 7.99951 12.0001H31.9995Z" fill="#451A03"/>
<path d="M31.9995 20C33.6794 19.9886 34.0008 19.4438 33.9995 18.0001V14.0001C34.0062 12.4581 33.5974 11.9944 31.9995 12.0001H7.99951C6.47442 12.0044 5.9966 12.2924 6.00024 14.0001L5.99951 18.0001C6.00989 19.424 6.47597 19.9951 7.99951 20M31.9995 20H7.99951M31.9995 20C32.0144 23.9964 31.3805 27.0645 29 34C28.5247 34.9979 28.1158 35.4555 27 36C21.6775 36.453 18.6351 36.5305 13 36C11.9141 35.5135 11.4688 35.0422 11 34C8.60295 27.0174 8.06506 24.0979 7.99951 20" stroke="black"/>
</svg>
