<svg width="16" height="16" viewBox="0 0 16 16" fill="none" xmlns="http://www.w3.org/2000/svg">
<path fill-rule="evenodd" clip-rule="evenodd" d="M1.5 3.5C1.5 2.96957 1.71071 2.46086 2.08579 2.08579C2.46086 1.71071 2.96957 1.5 3.5 1.5H5C5.53043 1.5 6.03914 1.71071 6.41421 2.08579C6.78929 2.46086 7 2.96957 7 3.5V12.5C7 13.0304 6.78929 13.5391 6.41421 13.9142C6.03914 14.2893 5.53043 14.5 5 14.5H3.5C2.96957 14.5 2.46086 14.2893 2.08579 13.9142C1.71071 13.5391 1.5 13.0304 1.5 12.5V3.5ZM9 3.5C9 2.96957 9.21071 2.46086 9.58579 2.08579C9.96086 1.71071 10.4696 1.5 11 1.5H12.5C13.0304 1.5 13.5391 1.71071 13.9142 2.08579C14.2893 2.46086 14.5 2.96957 14.5 3.5V12.5C14.5 13.0304 14.2893 13.5391 13.9142 13.9142C13.5391 14.2893 13.0304 14.5 12.5 14.5H11C10.4696 14.5 9.96086 14.2893 9.58579 13.9142C9.21071 13.5391 9 13.0304 9 12.5V3.5Z" fill="#F59E0B"/>
</svg>
