<svg width="50" height="50" viewBox="0 0 50 50" fill="none" xmlns="http://www.w3.org/2000/svg">
<path d="M25 42C15.6 42 8 34.4 8 25C8 15.6 15.6 8 25 8C34.4 8 42 15.6 42 25C42 34.4 34.4 42 25 42ZM25 10C16.7 10 10 16.7 10 25C10 33.3 16.7 40 25 40C33.3 40 40 33.3 40 25C40 16.7 33.3 10 25 10Z" fill="#0F172A"/>
<path d="M16 25C16 24.4477 16.4477 24 17 24H33C33.5523 24 34 24.4477 34 25V25C34 25.5523 33.5523 26 33 26H17C16.4477 26 16 25.5523 16 25V25Z" fill="#0F172A"/>
<path d="M24 17C24 16.4477 24.4477 16 25 16V16C25.5523 16 26 16.4477 26 17V33C26 33.5523 25.5523 34 25 34V34C24.4477 34 24 33.5523 24 33V17Z" fill="#0F172A"/>
</svg>
