<svg width="80" height="80" viewBox="0 0 80 80" fill="none" xmlns="http://www.w3.org/2000/svg">
<path d="M40 67.2C24.96 67.2 12.8 55.04 12.8 40C12.8 24.96 24.96 12.8 40 12.8C55.04 12.8 67.2 24.96 67.2 40C67.2 55.04 55.04 67.2 40 67.2ZM40 16C26.72 16 16 26.72 16 40C16 53.28 26.72 64 40 64C53.28 64 64 53.28 64 40C64 26.72 53.28 16 40 16Z" fill="#D97706"/>
<path d="M25.6001 39.9999C25.6001 39.1162 26.3164 38.3999 27.2001 38.3999H52.8001C53.6838 38.3999 54.4001 39.1162 54.4001 39.9999C54.4001 40.8836 53.6838 41.5999 52.8001 41.5999H27.2001C26.3164 41.5999 25.6001 40.8836 25.6001 39.9999Z" fill="#D97706"/>
<path d="M38.3999 27.2001C38.3999 26.3164 39.1162 25.6001 39.9999 25.6001C40.8836 25.6001 41.5999 26.3164 41.5999 27.2001V52.8001C41.5999 53.6838 40.8836 54.4001 39.9999 54.4001C39.1162 54.4001 38.3999 53.6838 38.3999 52.8001V27.2001Z" fill="#D97706"/>
</svg>
