<svg width="24" height="24" viewBox="0 0 24 24" fill="none" xmlns="http://www.w3.org/2000/svg">
<path fill-rule="evenodd" clip-rule="evenodd" d="M11.5397 2.39749C11.5699 2.37999 11.5936 2.36648 11.6104 2.35702L11.6383 2.34145C11.8612 2.21909 12.1377 2.22003 12.3608 2.34105L12.3894 2.35702C12.4062 2.36648 12.43 2.37999 12.4602 2.39749C12.5206 2.43249 12.6069 2.48353 12.7154 2.55035C12.9324 2.68394 13.2387 2.88096 13.6045 3.13942C14.335 3.65545 15.0232 4.42109 16 5.42119C17.9441 7.41171 19.5 11.1538 19.5 15C19.5 19.5563 16.5563 22.4985 11.9999 22.4985C7.44356 22.4985 4.5 19.5563 4.5 15C4.5 11.1538 6.05582 7.41171 7.99995 5.42119C8.97675 4.42109 9.66482 3.65545 10.3953 3.13942C10.7612 2.88096 11.0674 2.68394 11.2844 2.55035C11.3929 2.48353 11.4793 2.43249 11.5397 2.39749Z" fill="#3B82F6"/>
</svg>
