<svg width="40" height="30" viewBox="0 0 40 30" fill="none" xmlns="http://www.w3.org/2000/svg">
<path d="M37.9342 9.32512L32.3611 10.6209C31.8159 11.2507 31.9681 11.5095 32.7001 11.6698L38.2732 10.3739C38.8219 9.82629 38.9014 9.5282 37.9342 9.32512Z" fill="#1E40AF"/>
<path d="M34.0313 3.79937L30.2881 8.1716C30.2105 9.01126 30.4816 9.13277 31.1629 8.82909L34.9062 4.45686C35.0336 3.6824 34.9266 3.39103 34.0313 3.79937Z" fill="#1E40AF"/>
<path d="M28.6582 1.55481L27.5928 7.20462C27.945 7.96873 28.241 7.93806 28.6808 7.33483L29.7462 1.68502C29.4699 0.952251 29.2314 0.754114 28.6582 1.55481Z" fill="#1E40AF"/>
<path d="M20.8333 12.0559H5.64102V10.1164C5.69277 9.53604 5.9336 9.31761 6.41025 8.95241H17.7564C17.6015 4.77009 7.63593 -0.0096947 3.91025 8.17672C3.70025 9.31425 3.6742 9.9859 3.91025 11.2802C4.22943 12.253 4.5083 12.7643 5.2564 13.6078H20.8333V18.2629L26.9872 12.444V11.8621L25.8333 10.3103C25.8671 10.0648 25.9768 9.94167 26.2179 9.72845C26.6411 9.66214 26.8969 9.67002 27.3718 9.72845L30.8333 12.8319C30.8801 13.3622 30.8871 13.6595 30.8333 14.1897L30.2564 14.7716C30.1062 14.7967 30.022 14.7945 29.8718 14.7716L28.7179 13.6078C28.5351 13.618 28.4468 13.6514 28.3333 13.8017C24.3138 21.2289 20.1219 30.2135 19.6795 29.125H6.60256C5.90793 29.0853 5.61856 28.8911 5.44871 27.9612V18.069C2.88876 16.2233 1.76075 14.203 1.02563 11.2802V8.95259C3.32652 -2.82537 19.4145 -0.309855 20.8333 8.95241V12.0559Z" fill="#1E40AF"/>
</svg>
